<?xml version="1.0" encoding="utf-8"?>
<!-- Generator: Adobe Illustrator 23.0.3, SVG Export Plug-In . SVG Version: 6.00 Build 0)  -->
<svg version="1.1" xmlns="http://www.w3.org/2000/svg" xmlns:xlink="http://www.w3.org/1999/xlink" x="0px" y="0px"
	 viewBox="0 0 256 256" style="enable-background:new 0 0 256 256;" xml:space="preserve">
<style type="text/css">
	.st0{fill:#878787;}
	.st1{fill:#F2E1D6;}
	.st2{fill:#FFFFFF;}
	.st3{fill:#F0C020;}
	.st4{fill:#F9E5AF;}
	.st5{fill:#72C1E8;}
	.st6{fill:#C5E5FF;}
	.st7{fill:#13BF6D;}
	.st8{fill:#76FFBA;}
	.st9{fill:#EFEFEF;}
	.st10{fill:#FC5D3D;}
	.st11{fill:#FFCBC2;}
	.st12{fill:#FFB69F;}
	.st13{fill:#AFAFAF;}
	.st14{fill:#7C7B7A;}
	.st15{fill:#D6C0B4;}
	.st16{fill:#7A7380;}
	.st17{fill:#F0AB20;}
	.st18{fill:#FBE0E2;}
	.st19{fill:#4C4945;}
	.st20{fill:#68B0D4;}
	.st21{fill:#B35034;}
	.st22{fill:#EDAF85;}
	.st23{fill:#139C6D;}
</style>
<g id="Layer_2">
</g>
<g id="Layer_1">
	<g>
		<g>
			<g>
				<g>
					<path class="st10" d="M202.963,234.205c-13.572,0-25.192-9.234-28.255-22.456c-3.485-15.031-7.595-53.285-46.736-53.285
						c-8.357,0-16.48,2.397-23.49,6.932c-3.306,2.139-4.253,6.553-2.114,9.859c2.139,3.305,6.552,4.253,9.859,2.114
						c4.697-3.039,10.142-4.645,15.744-4.645c26.621,0,29.04,25.841,32.844,42.246c4.572,19.722,21.902,33.496,42.148,33.496h45.51
						v-14.26H202.963z"/>
				</g>
				<g>
					<path class="st10" d="M79.697,230.557c-2.278-3.212-6.729-3.969-9.94-1.693c-4.93,3.495-10.73,5.342-16.776,5.342H7.53v14.26
						h45.451c9.017,0,17.67-2.755,25.023-7.968C81.216,238.221,81.974,233.77,79.697,230.557z"/>
				</g>
				<g>
					<path class="st5" d="M154.677,230.563c-2.277-3.213-6.727-3.97-9.94-1.694c-2.987,2.117-6.297,3.618-9.784,4.48l0.014-44.943
						l-14.26-0.004l-0.014,44.886c-19.937-5.105-21.184-22.436-25.565-41.329c-4.572-19.722-21.902-33.496-42.148-33.496H7.527
						v14.26h31.834v46.228h14.26v-46.201c13.294,0.287,24.6,9.417,27.615,22.429c3.485,15.031,7.595,53.285,46.736,53.285
						c9.013,0,17.662-2.753,25.012-7.963C156.197,238.226,156.954,233.776,154.677,230.563z"/>
				</g>
				<g>
					<path class="st5" d="M202.963,158.464c-7.335,0-14.594,1.879-20.994,5.434c-3.442,1.912-4.683,6.253-2.771,9.695
						c1.916,3.449,6.26,4.68,9.695,2.771c4.101-2.278,8.732-3.515,13.43-3.62v47.666h14.26v-47.687h31.89v-14.26H202.963z"/>
				</g>
			</g>
			<g>
				<g>
					<path class="st0" d="M128,7.534c-32.186,0-58.37,26.024-58.457,58.337c-0.074,27.536,19.083,51.113,45.435,57.119
						c8.556,14.813,5.553,9.614,13.023,22.544c7.211-12.483,4.493-7.778,13.022-22.544c26.582-6.058,45.503-29.8,45.434-57.119
						C186.376,33.606,160.228,7.534,128,7.534z"/>
				</g>
				<g>
					<path class="st9" d="M126.749,129.873c-1.195-0.69-1.604-2.22-0.914-3.415l7.635-13.216c0.349-0.602,0.932-1.032,1.609-1.187
						c26.076-5.945,39.16-25.432,39.16-45.808c0-20.999-14.084-38.814-33.361-44.426c-1.325-0.386-2.087-1.773-1.701-3.099
						s1.772-2.089,3.1-1.702c21.372,6.222,36.963,25.978,36.963,49.227c0,22.686-14.316,44.135-41.985,50.44l-7.089,12.271
						C129.475,130.151,127.95,130.566,126.749,129.873z M131.566,20.127c-1.18-0.091-2.367-0.137-3.566-0.137
						c-1.38,0-2.499-1.119-2.5-2.499c-0.001-1.381,1.118-2.5,2.499-2.501c0.007,0,0.014,0,0.02,0c1.307,0,2.629,0.051,3.933,0.151
						c1.376,0.106,2.406,1.308,2.3,2.685C134.146,19.193,132.957,20.23,131.566,20.127z"/>
				</g>
				<g>
					<path class="st1" d="M165.866,65.88c0,11.798-5.393,22.331-13.861,29.281c-6.542,5.354-14.894,8.586-24.005,8.586
						s-17.463-3.232-24.005-8.586c-8.469-6.95-13.861-17.483-13.861-29.281c0-20.929,16.957-37.886,37.866-37.886
						S165.866,44.952,165.866,65.88z"/>
				</g>
				<g>
					<path class="st7" d="M152.005,92.883v2.278c-6.542,5.354-14.894,8.586-24.005,8.586s-17.463-3.232-24.005-8.586v-2.278
						c0-10.747,8.703-19.468,19.469-19.468h9.073C143.302,73.415,152.005,82.137,152.005,92.883z"/>
				</g>
				<g>
					<path class="st14" d="M140.63,40.346l-4.633,2.418c-1.19,0.621-2.513,0.946-3.856,0.946h-9.285
						c-3.445,0-5.595,2.902-5.595,6.484v3.52h21.479l0,0C141.891,50.355,143.006,45.242,140.63,40.346z"/>
				</g>
				<g>
					<path class="st12" d="M128.012,73.415L128.012,73.415c-5.931,0-10.739-4.808-10.739-10.739v-8.962h21.479v8.962
						C138.751,68.607,133.943,73.415,128.012,73.415z"/>
				</g>
			</g>
		</g>
		<path d="M151.539,238.463c-6.926,4.908-15.075,7.502-23.567,7.502c-36.955,0-40.589-35.356-44.3-51.35
			c-3.253-14.034-15.588-24.052-29.997-24.364c-1.376-0.03-2.554,1.076-2.554,2.5v46.201c0,1.381,1.119,2.5,2.5,2.5
			s2.5-1.119,2.5-2.5v-43.523c11.002,1.298,20.139,9.35,22.68,20.316c3.293,14.192,7.909,55.221,49.171,55.221
			c9.534,0,18.684-2.913,26.458-8.423c4.331-3.07,5.357-9.092,2.288-13.425c-3.071-4.332-9.095-5.356-13.426-2.288
			c-1.819,1.289-3.773,2.333-5.838,3.122l0.013-41.544c0-1.381-1.118-2.5-2.499-2.501c-0.001,0-0.001,0-0.001,0
			c-1.38,0-2.5,1.119-2.5,2.499l-0.014,44.943c0,1.617,1.518,2.819,3.101,2.428c3.833-0.948,7.41-2.585,10.629-4.867
			c2.084-1.475,4.979-0.983,6.455,1.1C154.114,234.092,153.621,236.987,151.539,238.463z"/>
		<path d="M7.527,175.224h29.334v43.728c0,1.381,1.119,2.5,2.5,2.5s2.5-1.119,2.5-2.5v-46.228c0-1.381-1.119-2.5-2.5-2.5H7.527
			c-1.381,0-2.5,1.119-2.5,2.5S6.146,175.224,7.527,175.224z"/>
		<path d="M5.027,158.464c0,1.381,1.119,2.5,2.5,2.5H52.98c19.074,0,35.405,12.978,39.712,31.561
			c4.347,18.721,5.812,37.663,27.38,43.186c1.595,0.406,3.12-0.805,3.12-2.421l0.015-44.886c0-1.381-1.118-2.5-2.499-2.501
			c-0.001,0-0.001,0-0.001,0c-1.38,0-2.5,1.119-2.5,2.499l-0.014,41.501c-15.34-5.636-16.497-20.692-20.63-38.508
			c-4.836-20.861-23.169-35.431-44.583-35.431H7.527C6.146,155.964,5.027,157.083,5.027,158.464z"/>
		<path d="M248.49,155.97c-0.011-0.01-0.011-0.01-0.021-0.01h-45.51c-7.76,0.01-15.44,1.99-22.2,5.75
			c-4.692,2.597-6.318,8.491-3.74,13.1c2.547,4.61,8.39,6.332,13.08,3.74c3-1.67,6.271-2.72,9.72-3.13v13.44
			c0,1.38,1.12,2.5,2.5,2.5c1.381,0,2.5-1.12,2.5-2.5v-16.12c0-1.428-1.178-2.531-2.55-2.49c-5.12,0.11-10.16,1.47-14.59,3.93
			c-2.318,1.259-5.083,0.381-6.3-1.8c-1.246-2.24-0.416-5.055,1.8-6.3c6.03-3.35,12.87-5.12,19.78-5.12h45.51
			c1.38,0,2.5-1.12,2.5-2.5C250.97,157.09,249.859,155.97,248.49,155.97z"/>
		<circle cx="202.319" cy="198.86" r="2.5"/>
		<path d="M199.819,220.41c0,1.38,1.12,2.5,2.5,2.5c1.381,0,2.5-1.12,2.5-2.5v-11.55c0-1.38-1.119-2.5-2.5-2.5
			c-1.38,0-2.5,1.12-2.5,2.5V220.41z"/>
		<path d="M248.473,170.224h-31.89c-1.381,0-2.5,1.119-2.5,2.5v47.687c0,1.381,1.119,2.5,2.5,2.5s2.5-1.119,2.5-2.5v-45.187h29.39
			c1.381,0,2.5-1.119,2.5-2.5S249.854,170.224,248.473,170.224z"/>
		<path d="M105.841,167.495c6.604-4.272,14.256-6.531,22.131-6.531c36.794,0,40.494,34.934,44.301,51.35
			c3.327,14.361,15.948,24.392,30.691,24.392h45.509c1.381,0,2.5-1.119,2.5-2.5s-1.119-2.5-2.5-2.5h-45.509
			c-12.403,0-23.021-8.438-25.82-20.521c-3.295-14.201-7.913-55.22-49.172-55.22c-8.841,0-17.433,2.536-24.847,7.333
			c-4.47,2.891-5.747,8.846-2.855,13.316c2.884,4.457,8.858,5.739,13.315,2.855c4.293-2.776,9.268-4.244,14.387-4.244
			c24.434,0,26.437,23.2,30.408,40.311c4.837,20.861,23.17,35.431,44.584,35.431h45.509c1.381,0,2.5-1.119,2.5-2.5
			s-1.119-2.5-2.5-2.5h-45.509c-19.074,0-35.405-12.978-39.713-31.56c-3.82-16.492-6.513-44.182-35.279-44.182
			c-6.085,0-11.999,1.745-17.102,5.046c-2.143,1.387-5.017,0.77-6.402-1.373C103.078,171.749,103.691,168.885,105.841,167.495z"/>
		<path d="M7.53,250.97h30c1.38,0,2.5-1.13,2.5-2.5c0-1.38-1.12-2.5-2.5-2.5h-30c-1.381,0-2.5,1.12-2.5,2.5
			C5.03,249.84,6.149,250.97,7.53,250.97z"/>
		<path d="M5.03,234.21c0,1.38,1.119,2.5,2.5,2.5H53c6.56,0,12.85-2.01,18.2-5.81c2.087-1.454,4.958-1.016,6.46,1.1
			c1.486,2.135,0.963,4.984-1.101,6.46c-5.71,4.04-12.38,6.56-19.3,7.28c-1.362,0.145-2.375,1.387-2.229,2.75
			c0.155,1.425,1.431,2.379,2.75,2.23c7.77-0.81,15.27-3.64,21.67-8.18c4.316-3.064,5.37-9.072,2.29-13.43
			c-3.029-4.272-9.037-5.407-13.431-2.28c-4.51,3.19-9.81,4.88-15.33,4.88H7.53C6.149,231.71,5.03,232.83,5.03,234.21z"/>
		<circle cx="47.53" cy="248.47" r="2.5"/>
		<path d="M128,106.25c22.092,0,40.379-17.897,40.359-40.37c0-22.374-18.077-40.369-40.359-40.39
			c-22.315,0.021-40.37,18.062-40.37,40.39C87.63,88.305,105.863,106.25,128,106.25z M137.577,51.213h-17.816v-1.02
			c0-1.983,0.957-3.984,3.096-3.984h9.284c1.738,0,3.472-0.425,5.014-1.229l2.08-1.086C139.73,46.433,139.141,49.114,137.577,51.213
			z M119.772,56.213h16.479v6.462c0,4.543-3.696,8.239-8.239,8.239s-8.239-3.696-8.239-8.239V56.213z M123.464,75.915h9.072
			c9.356,0,16.969,7.612,16.969,16.969v1.063c-6.031,4.613-13.585,7.3-21.505,7.3c-7.728,0-15.34-2.575-21.505-7.3v-1.063
			C106.495,83.527,114.107,75.915,123.464,75.915z M128,30.49c19.364,0.021,35.348,15.626,35.37,35.39
			c-0.009,8.837-3.281,17.216-9.117,23.678c-1.342-8.8-7.925-15.895-16.452-18.001c2.135-2.352,3.45-5.462,3.45-8.881v-8.045
			c3.276-4.062,4.277-9.924,1.628-15.377c-0.613-1.26-2.145-1.778-3.406-1.124l-4.632,2.418c-0.83,0.433-1.764,0.662-2.7,0.662
			h-9.284c-4.691,0-8.096,3.778-8.096,8.984c0,0.939,0.012,4.454,0.012,12.482c0,3.417,1.313,6.526,3.446,8.877
			c-8.537,2.1-15.129,9.2-16.471,18.006c-5.839-6.462-9.117-14.842-9.117-23.679C92.65,46.17,108.577,30.511,128,30.49z"/>
		<path d="M78.24,35.2c-1.171-0.66-2.75-0.21-3.4,0.95c-0.68,1.2-0.25,2.72,0.95,3.4c1.165,0.661,2.7,0.274,3.399-0.94V38.6
			C79.876,37.395,79.43,35.858,78.24,35.2z"/>
		<path d="M67.04,66.03c0,28.342,19.498,52.528,46.31,59.14l12.48,21.61c0.978,1.673,3.384,1.654,4.33,0l12.489-21.61
			c27.345-6.744,46.311-31.345,46.311-59.15c0-33.702-27.27-60.968-60.97-60.99c-18.421,0-35.66,8.21-47.301,22.51
			c-0.836,1.035-0.742,2.62,0.37,3.52c1.03,0.84,2.67,0.67,3.51-0.36C95.26,17.57,111.09,10.04,128,10.03
			c30.622,0,55.96,24.886,55.96,55.99c0,26.27-17.891,48.7-43.49,54.53c-0.68,0.15-1.27,0.59-1.61,1.19L128,140.54l-10.86-18.8
			c-0.35-0.6-0.93-1.04-1.609-1.19c-25.2-5.74-43.5-28.67-43.49-54.52c0-6.22,1.016-12.56,3.2-18.73c0.46-1.3-0.221-2.73-1.521-3.19
			c-1.27-0.46-2.74,0.25-3.189,1.52C68.217,52.148,67.04,59.023,67.04,66.03z"/>
		<path d="M203.17,58.62c0,1.38,1.12,2.5,2.5,2.5h15.83c1.38,0,2.5-1.12,2.5-2.5c0-1.38-1.12-2.5-2.5-2.5h-15.83
			C204.29,56.12,203.17,57.24,203.17,58.62z"/>
		<path d="M242.33,69.66h-36.66c-1.38,0-2.5,1.12-2.5,2.5c0,1.38,1.12,2.5,2.5,2.5h36.66c1.38,0,2.5-1.12,2.5-2.5
			C244.83,70.78,243.71,69.66,242.33,69.66z"/>
		<path d="M205.67,88.19h36.66c1.38,0,2.5-1.12,2.5-2.5s-1.12-2.5-2.5-2.5h-36.66c-1.38,0-2.5,1.12-2.5,2.5
			S204.29,88.19,205.67,88.19z"/>
		<path d="M198.8,146.47c1.32,0.22,2.637-0.729,2.84-2.11l6.19-42.63h34.5c1.38,0,2.5-1.12,2.5-2.5c0-1.38-1.12-2.5-2.5-2.5h-36.66
			c-1.26,0-2.3,0.9-2.48,2.14l-6.5,44.77C196.484,145.001,197.44,146.285,198.8,146.47z"/>
		<path d="M11.17,58.62c0,1.38,1.12,2.5,2.5,2.5H29.5c1.38,0,2.5-1.12,2.5-2.5c0-1.38-1.12-2.5-2.5-2.5H13.67
			C12.29,56.12,11.17,57.24,11.17,58.62z"/>
		<path d="M13.67,74.66h36.66c1.38,0,2.5-1.12,2.5-2.5c0-1.38-1.12-2.5-2.5-2.5H13.67c-1.38,0-2.5,1.12-2.5,2.5
			C11.17,73.54,12.29,74.66,13.67,74.66z"/>
		<path d="M13.67,88.19h36.66c1.38,0,2.5-1.12,2.5-2.5s-1.12-2.5-2.5-2.5H13.67c-1.38,0-2.5,1.12-2.5,2.5S12.29,88.19,13.67,88.19z"
			/>
		<path d="M11.26,99.89l12.83,46.31c0.363,1.307,1.726,2.11,3.08,1.74c1.356-0.382,2.107-1.762,1.74-3.07l-11.96-43.14h33.38
			c1.38,0,2.5-1.12,2.5-2.5c0-1.38-1.11-2.49-2.48-2.5c-0.01,0-0.01,0-0.02,0H13.67C11.987,96.73,10.822,98.325,11.26,99.89z"/>
	</g>
</g>
</svg>
