<svg id="Layer_1" data-name="Layer 1" xmlns="http://www.w3.org/2000/svg" viewBox="0 0 48 48"><defs><style>.cls-1{fill:none;stroke:#000;stroke-linecap:round;stroke-linejoin:round;stroke-width:2px;}</style></defs><title>genetic</title><path class="cls-1" d="M14.14,4c0,10,19.77,10,19.77,20s-19.77,10-19.77,20"/><path class="cls-1" d="M33.91,4c0,10-19.77,10-19.77,20s19.77,10,19.77,20"/><path class="cls-1" d="M33.91,4c0,10-19.77,10-19.77,20"/><line class="cls-1" x1="30" y1="23" x2="14" y2="23"/><line class="cls-1" x1="25" y1="18" x2="18" y2="18"/><line class="cls-1" x1="30" y1="10" x2="23" y2="10"/><line class="cls-1" x1="33" y1="6" x2="20" y2="6"/><line class="cls-1" x1="18" y1="38" x2="25" y2="38"/><line class="cls-1" x1="15" y1="42" x2="28" y2="42"/><line class="cls-1" x1="29" y1="28" x2="16" y2="28"/><rect class="cls-1" x="-496" y="-632" width="700" height="700"/></svg>